{"title":"18+ The London Firm 2015 English Movies HDRip XviD +sample ☻rDX☻","uid":12653449,"size":739599457,"categoryP":"video","categoryS":"movies","magnet":"?xt=urn:btih:1b239b4d0ddde45eb20535890cc15ddf13a44b3a&amp;dn=18%2B+The+London+Firm+2015+English+Movies+HDRip+XviD+%2Bsample+%E2%98%BBrDX%E2%98%BB&amp;tr=udp%3A%2F%2Ftracker.leechers-paradise.org%3A6969&amp;tr=udp%3A%2F%2Fzer0day.ch%3A1337&amp;tr=udp%3A%2F%2Fopen.demonii.com%3A1337&amp;tr=udp%3A%2F%2Ftracker.coppersurfer.tk%3A6969&amp;tr=udp%3A%2F%2Fexodus.desync.com%3A6969","seeders":0,"leechers":1,"uploader":"basicssom","files":2,"time":1446180755,"description":"----------------------------------------------------------------\r\n18+ The London Firm 2015 English Movies HDRip XviD AAC with sample ~ ☻rDX☻\r\n\r\nSCREEN SHOTS &amp; POSTER:\r\n  \nhttp://doctorhosts.com/2015/10/TheLondonFirm/11.html  \nhttp://doctorhosts.com/2015/10/TheLondonFirm/1.html  \nhttp://doctorhosts.com/2015/10/TheLondonFirm/2.html  \nhttp://doctorhosts.com/2015/10/TheLondonFirm/3.html  \nhttp://doctorhosts.com/2015/10/TheLondonFirm/4.html  \nhttp://doctorhosts.com/2015/10/TheLondonFirm/5.html  \nhttp://doctorhosts.com/2015/10/TheLondonFirm/6.html  \nhttp://doctorhosts.com/2015/10/TheLondonFirm/7.html  \nhttp://doctorhosts.com/2015/10/TheLondonFirm/8.html  \nhttp://doctorhosts.com/2015/10/TheLondonFirm/9.html  \nhttp://doctorhosts.com/2015/10/TheLondonFirm/10.html\r\n\r\nFormat                                   : Matroska\r\nFormat version                           : Version 4 / Version 2\r\nFile size                                : 694 MiB\r\nDuration                                 : 1h 16mn\r\nOverall bit rate                         : 1 264 Kbps\r\nMovie name                               : 18+ The London Firm 2015 English Movies HDRip XviD AAC ~ rDX ~\r\n\r\nVideo\r\nID                                       : 1\r\nFormat                                   : MPEG-4 Visual\r\nFormat profile                           : Advanced   \r\nFormat settings, BVOP                    : Yes\r\nFormat settings, QPel                    : No\r\nFormat settings, GMC                     : No warppoints\r\nFormat settings, Matrix                  : Default (H.263)\r\nCodec ID                                 : V_MS/VFW/FOURCC / XVID\r\nCodec ID/Hint                            : XviD\r\nDuration                                 : 1h 16mn\r\nBit rate                                 : 1 111 Kbps\r\nWidth                                    : 640 pixels\r\nHeight                                   : 320 pixels\r\nDisplay aspect ratio                     : 2.000\r\nFrame rate mode                          : Constant\r\nFrame rate                               : 25.000 fps\r\nColor space                              : YUV\r\nChroma subsampling                       : 4:2:0\r\nBit depth                                : 8 bits\r\nScan type                                : Progressive\r\nCompression mode                         : Lossy\r\nBits/(Pixel*Frame)                       : 0.217\r\nStream size                              : 610 MiB (88%)\r\nTitle                                    : ~ rDX ~\r\nWriting library                          : XviD 67\r\nDefault                                  : Yes\r\nForced                                   : No\r\n\r\nAudio\r\nID                                       : 2\r\nFormat                                   : MPEG Audio\r\nFormat version                           : Version 1\r\nFormat profile                           : Layer 3\r\nMode                                     : Joint stereo\r\nMode extension                           : MS Stereo\r\nCodec ID                                 : A_MPEG/L3\r\nCodec ID/Hint                            : MP3\r\nDuration                                 : 1h 16mn\r\nBit rate mode                            : Constant\r\nBit rate                                 : 128 Kbps\r\nChannel(s)                               : 2 channels\r\nSampling rate                            : 48.0 KHz\r\nCompression mode                         : Lossy\r\nStream size                              : 70.3 MiB (10%)\r\nTitle                                    : ~ rDX ~\r\nWriting library                          : LAME3.99r\r\nEncoding settings                        : -m j -V 4 -q 3 -lowpass 17 -b 128\r\nDefault                                  : Yes\r\nForced                                   : No\r\n\r\nIMDB                                      \nhttp://www.imdb.com/title/tt2297812/","torrent":{"xt":"urn:btih:1b239b4d0ddde45eb20535890cc15ddf13a44b3a","amp;dn":"18%2B+The+London+Firm+2015+English+Movies+HDRip+XviD+%2Bsample+%E2%98%BBrDX%E2%98%BB","amp;tr":["udp%3A%2F%2Ftracker.leechers-paradise.org%3A6969","udp%3A%2F%2Fzer0day.ch%3A1337","udp%3A%2F%2Fopen.demonii.com%3A1337","udp%3A%2F%2Ftracker.coppersurfer.tk%3A6969","udp%3A%2F%2Fexodus.desync.com%3A6969"],"infoHash":"1b239b4d0ddde45eb20535890cc15ddf13a44b3a","infoHashBuffer":{"type":"Buffer","data":[27,35,155,77,13,221,228,94,178,5,53,137,12,193,93,223,19,164,75,58]},"announce":[],"urlList":[]}}